<svg width="98" height="37" viewBox="0 0 98 37" fill="none" xmlns="http://www.w3.org/2000/svg">
<path d="M17.2007 36.3166C17.2007 36.3166 28.8785 35.2441 27.846 29.4007C26.8136 23.5573 12.1288 21.212 14.1536 9.73553C16.1783 -1.74083 35.4441 -0.768595 32.5473 2.65928C29.6504 6.08716 24.2374 6.73865 26.2122 14.3662C28.1869 21.9937 35.6646 22.3345 34.6422 30.8139C33.6198 39.2935 17.2007 36.3166 17.2007 36.3166Z" fill="url(#paint0_linear)"/>
<path d="M17.2811 36.3869C17.2811 36.3869 19.4663 31.0646 18.1832 26.2836C16.9002 21.5026 11.0062 20.6205 10.0038 16.8921C9.00144 13.1635 11.2768 11.8705 11.2768 11.8705C11.2768 11.8705 5.1523 11.0385 4.03966 15.1881C2.92702 19.3376 7.95897 20.3901 7.95897 20.3901C7.95897 20.3901 4.59097 20.2097 4.03966 21.9636C7.78857 21.5227 9.81338 22.8256 9.81338 22.8256C9.81338 22.8256 11.9584 24.1787 11.2768 26.2736C10.5952 28.3684 6.17473 30.6436 6.17473 30.6436L14.6148 33.9913L17.2811 36.3869Z" fill="url(#paint1_linear)"/>
<path d="M26.0017 26.3737C22.6538 23.036 12.6199 20.841 14.1335 9.11406C15.6471 -2.61289 34.6121 -0.758625 32.7577 2.30842C30.9033 5.37547 24.2976 6.98918 26.2823 14.7471C25.3401 19.3676 29.0289 23.1163 26.0017 26.3737Z" fill="url(#paint2_linear)"/>
<path d="M17.251 36.3366C17.251 36.3366 13.1212 32.5279 7.3274 32.9789C1.53364 33.4299 0 34.793 0 34.793C0 34.793 7.12693 28.1979 12.1789 29.8518C17.2309 31.5055 17.251 36.3366 17.251 36.3366Z" fill="#FF895E"/>
<path d="M17.2008 36.3167C17.2008 36.3167 28.8786 35.2442 27.8461 29.4007C26.8137 23.5573 35.6547 22.3345 34.6423 30.804C33.6299 39.2734 17.2008 36.3167 17.2008 36.3167Z" fill="url(#paint3_linear)"/>
<path d="M10.0039 16.8921C9.0115 13.1735 11.2768 11.8705 11.2768 11.8705C11.2768 11.8705 5.15233 11.0385 4.03968 15.1881C2.92705 19.3376 11.0062 20.6106 10.0039 16.8921Z" fill="url(#paint4_linear)"/>
<path d="M41.4308 31.2463V29.0746C41.4308 28.0989 41.8506 27.2806 42.6904 26.6197L47.1822 22.9846C47.9428 22.3865 48.323 21.6942 48.323 20.9073V20.1284C48.323 18.9953 47.7289 18.4288 46.5405 18.4288H45.376C44.7739 18.4288 44.3382 18.5625 44.0688 18.8301C43.7994 19.0977 43.6648 19.5303 43.6648 20.1284V21.0017C43.6648 21.285 43.5302 21.4266 43.2608 21.4266H41.7397C41.4703 21.4266 41.3357 21.285 41.3357 21.0017V20.0812C41.3357 18.9324 41.6605 18.0432 42.3101 17.4138C42.9598 16.7844 43.8707 16.4696 45.0432 16.4696H46.897C48.0536 16.4696 48.9567 16.7844 49.6064 17.4138C50.2561 18.0432 50.5808 18.9324 50.5808 20.0812V21.049C50.5808 22.2764 50.0975 23.2835 49.1311 24.0704L44.5679 27.7763C44.2035 28.0753 44.0213 28.4294 44.0213 28.8386V29.5939H50.2006C50.4858 29.5939 50.6284 29.7276 50.6284 29.9952V31.2463C50.6284 31.5138 50.4858 31.6475 50.2006 31.6475H41.8586C41.5734 31.6475 41.4308 31.5138 41.4308 31.2463ZM53.2261 27.9652V27.3515C53.2261 27.0839 53.3608 26.9502 53.6302 26.9502H55.1512C55.4206 26.9502 55.5552 27.0839 55.5552 27.3515V27.7763C55.5552 28.4373 55.6979 28.9173 55.983 29.2162C56.284 29.4995 56.7753 29.6411 57.4566 29.6411H59.0964C59.7777 29.6411 60.269 29.4916 60.57 29.1926C60.871 28.8779 61.0215 28.3744 61.0215 27.6819V27.139C61.0215 26.6354 60.8234 26.242 60.4274 25.9588C60.0471 25.6598 59.5718 25.471 59.0014 25.3923C58.431 25.2978 57.8051 25.1719 57.1238 25.0146C56.4426 24.8572 55.8167 24.6762 55.2463 24.4717C54.6759 24.2671 54.1926 23.8815 53.7965 23.315C53.4163 22.7485 53.2261 22.0247 53.2261 21.1434V20.152C53.2261 19.0032 53.5509 18.1063 54.2006 17.461C54.866 16.8001 55.7771 16.4696 56.9337 16.4696H59.4529C60.6255 16.4696 61.5364 16.8001 62.1861 17.461C62.8515 18.1063 63.1843 19.0032 63.1843 20.152V20.6713C63.1843 20.9388 63.0496 21.0726 62.7802 21.0726H61.2592C60.9898 21.0726 60.8552 20.9388 60.8552 20.6713V20.3644C60.8552 19.6878 60.7046 19.2078 60.4036 18.9245C60.1184 18.6256 59.6351 18.476 58.9538 18.476H57.4566C56.7753 18.476 56.284 18.6333 55.983 18.9481C55.6979 19.2471 55.5552 19.7664 55.5552 20.506V21.2378C55.5552 21.9459 56.0701 22.4259 57.1001 22.6777C57.5596 22.7878 58.0587 22.8822 58.5974 22.9609C59.1519 23.0397 59.7064 23.1577 60.261 23.315C60.8156 23.4723 61.3225 23.6848 61.782 23.9524C62.2416 24.2041 62.6139 24.5976 62.8991 25.1326C63.1843 25.6519 63.3269 26.2892 63.3269 27.0446V27.9652C63.3269 29.1139 62.9941 30.0188 62.3287 30.6797C61.679 31.325 60.7759 31.6475 59.6193 31.6475H56.9575C55.8009 31.6475 54.8898 31.325 54.2243 30.6797C53.5589 30.0188 53.2261 29.1139 53.2261 27.9652ZM70.7146 31.6475H69.2174C68.9322 31.6475 68.7896 31.5138 68.7896 31.2463V18.7121C68.7896 18.5547 68.7104 18.476 68.5519 18.476H65.5573C65.2721 18.476 65.1295 18.3423 65.1295 18.0747V16.8709C65.1295 16.6033 65.2721 16.4696 65.5573 16.4696H74.3747C74.6599 16.4696 74.8025 16.6033 74.8025 16.8709V18.0747C74.8025 18.3423 74.6599 18.476 74.3747 18.476H71.3801C71.2059 18.476 71.1187 18.5547 71.1187 18.7121V31.2463C71.1187 31.5138 70.984 31.6475 70.7146 31.6475ZM84.846 31.6475H77.2408C76.9714 31.6475 76.8368 31.5138 76.8368 31.2463V16.8709C76.8368 16.6033 76.9714 16.4696 77.2408 16.4696H84.846C85.0995 16.4696 85.2263 16.6033 85.2263 16.8709V18.0747C85.2263 18.3423 85.0995 18.476 84.846 18.476H79.4273C79.2372 18.476 79.1421 18.5547 79.1421 18.7121V22.7013C79.1421 22.8586 79.2372 22.9373 79.4273 22.9373H84.0142C84.2994 22.9373 84.442 23.0711 84.442 23.3386V24.5425C84.442 24.81 84.2994 24.9438 84.0142 24.9438H79.4273C79.2372 24.9438 79.1421 25.0225 79.1421 25.1798V29.3815C79.1421 29.5546 79.2372 29.6411 79.4273 29.6411H84.846C85.0995 29.6411 85.2263 29.7749 85.2263 30.0424V31.2463C85.2263 31.5138 85.0995 31.6475 84.846 31.6475ZM90.1571 31.6475H88.6598C88.3904 31.6475 88.2558 31.5138 88.2558 31.2463V16.8709C88.2558 16.6033 88.3904 16.4696 88.6598 16.4696H94.3162C95.4728 16.4696 96.3759 16.7922 97.0256 17.4374C97.6751 18.0668 98 18.9638 98 20.1284V22.5833C98 23.732 97.6751 24.629 97.0256 25.2742C96.3759 25.9195 95.4728 26.242 94.3162 26.242H90.8463C90.6562 26.242 90.5611 26.3208 90.5611 26.4781V31.2463C90.5611 31.5138 90.4264 31.6475 90.1571 31.6475ZM90.8226 24.212H93.9835C95.1084 24.212 95.6709 23.6298 95.6709 22.4652V20.2228C95.6709 19.0582 95.1084 18.476 93.9835 18.476H90.8226C90.6482 18.476 90.5611 18.5547 90.5611 18.7121V23.976C90.5611 24.1333 90.6482 24.212 90.8226 24.212Z" fill="black"/>
<path d="M45.5439 5.48993V6.41914C46.3678 6.43322 47.0177 6.56697 47.4935 6.82039C47.9694 7.07381 48.3068 7.4117 48.5056 7.83407C48.7045 8.2494 48.8039 8.714 48.8039 9.22788C48.8039 9.56577 48.7507 9.90367 48.6441 10.2416C48.5447 10.5724 48.3707 10.8751 48.1221 11.1497C47.8735 11.4172 47.5397 11.6354 47.1207 11.8043C46.7016 11.9733 46.176 12.0648 45.5439 12.0789V13.2404H44.5957V12.0789C43.9494 12.0648 43.4132 11.9733 42.987 11.8043C42.568 11.6283 42.2377 11.4031 41.9962 11.1285C41.7547 10.847 41.5843 10.5407 41.4848 10.2099C41.3854 9.87903 41.3357 9.55169 41.3357 9.22788C41.3357 8.72808 41.4351 8.27051 41.634 7.85519C41.84 7.43282 42.1809 7.09141 42.6568 6.83095C43.1326 6.57049 43.7789 6.43322 44.5957 6.41914V5.48993H45.5439ZM44.5957 7.22164C44.0275 7.23571 43.573 7.32723 43.2321 7.49617C42.8982 7.66512 42.6603 7.89742 42.5183 8.19308C42.3762 8.4817 42.3052 8.82311 42.3052 9.21732C42.3052 9.83679 42.4863 10.3331 42.8485 10.7062C43.2178 11.0722 43.8002 11.2693 44.5957 11.2975V7.22164ZM45.5439 7.22164V11.2975C46.3678 11.2693 46.9537 11.0687 47.3018 10.6956C47.6569 10.3155 47.8345 9.82271 47.8345 9.21732C47.8345 8.81607 47.7634 8.47114 47.6214 8.18252C47.4793 7.88686 47.2414 7.65808 46.9076 7.49617C46.5738 7.32723 46.1192 7.23571 45.5439 7.22164ZM50.3989 5.59552H51.2938V9.73472C51.2938 9.96702 51.2903 10.2275 51.2832 10.5161C51.2761 10.8047 51.2654 11.0687 51.2512 11.308C51.2441 11.5474 51.2334 11.7234 51.2192 11.836H51.2619L55.4488 5.59552H56.5141V13.1348H55.6192V9.03781C55.6192 8.77736 55.6228 8.4993 55.6299 8.20364C55.6441 7.90798 55.6583 7.63696 55.6725 7.39058C55.6867 7.1442 55.6973 6.96822 55.7044 6.86262H55.6618L51.4643 13.1348H50.3989V5.59552ZM64.3828 13.1348H63.4239V9.61857H59.5247V13.1348H58.5658V5.59552H59.5247V8.78439H63.4239V5.59552H64.3828V13.1348ZM71.2354 13.1348L70.3192 10.8012H67.3042L66.3986 13.1348H65.429L68.4015 5.56384H69.2644L72.2262 13.1348H71.2354ZM70.0315 9.95646L69.1792 7.67568C69.1579 7.61936 69.1224 7.51729 69.0727 7.36946C69.023 7.22164 68.9732 7.07029 68.9235 6.91542C68.8809 6.75351 68.8454 6.63032 68.817 6.54585C68.7673 6.76407 68.7104 6.97877 68.6465 7.18996C68.5826 7.3941 68.5293 7.55601 68.4867 7.67568L67.6238 9.95646H70.0315ZM79.0836 13.1348H78.1248V9.61857H74.2255V13.1348H73.2667V5.59552H74.2255V8.78439H78.1248V5.59552H79.0836V13.1348ZM84.4234 6.3241C83.6066 6.3241 82.9638 6.59512 82.4951 7.13716C82.0263 7.6792 81.7919 8.42186 81.7919 9.36515C81.7919 10.3014 82.0086 11.0441 82.4418 11.5931C82.8822 12.1352 83.5391 12.4062 84.4127 12.4062C84.7466 12.4062 85.0626 12.378 85.3609 12.3217C85.6592 12.2654 85.9504 12.195 86.2345 12.1105V12.9342C85.9504 13.0397 85.6557 13.1172 85.3503 13.1665C85.052 13.2157 84.6933 13.2404 84.2742 13.2404C83.5001 13.2404 82.8538 13.082 82.3353 12.7652C81.8168 12.4484 81.4262 11.9979 81.1634 11.4136C80.9077 10.8294 80.7798 10.143 80.7798 9.35459C80.7798 8.59433 80.9183 7.92558 81.1953 7.34835C81.4794 6.76407 81.8949 6.31003 82.4418 5.98621C82.9887 5.65536 83.6528 5.48993 84.4341 5.48993C85.2366 5.48993 85.9362 5.63776 86.5328 5.93341L86.1493 6.73591C85.9149 6.63032 85.6521 6.53529 85.3609 6.45081C85.0768 6.36634 84.7643 6.3241 84.4234 6.3241ZM87.8947 13.1348V5.59552H88.8535V8.78439H90.0254C90.7357 8.78439 91.2932 8.87943 91.6981 9.06949C92.11 9.25956 92.4012 9.5165 92.5717 9.84031C92.7492 10.1641 92.838 10.5267 92.838 10.9279C92.838 11.5896 92.6214 12.1246 92.1881 12.5329C91.762 12.9342 91.0801 13.1348 90.1426 13.1348H87.8947ZM94.0099 13.1348V5.59552H94.9687V13.1348H94.0099ZM88.8535 12.3323H90.0574C90.6682 12.3323 91.1192 12.2161 91.4104 11.9838C91.7016 11.7515 91.8472 11.3996 91.8472 10.9279C91.8472 10.4422 91.6874 10.1043 91.3678 9.91423C91.0553 9.71712 90.5723 9.61857 89.9189 9.61857H88.8535V12.3323Z" fill="#77BEFF"/>
<defs>
<linearGradient id="paint0_linear" x1="24.3521" y1="0.368694" x2="24.3521" y2="36.8227" gradientUnits="userSpaceOnUse">
<stop stop-color="#FF9F5D"/>
<stop offset="1" stop-color="#FFB45D"/>
</linearGradient>
<linearGradient id="paint1_linear" x1="11.2325" y1="11.8052" x2="11.2325" y2="36.3889" gradientUnits="userSpaceOnUse">
<stop stop-color="#FFAC77"/>
<stop offset="1" stop-color="#FF964A"/>
</linearGradient>
<linearGradient id="paint2_linear" x1="19.2117" y1="-1.21822" x2="34.765" y2="16.3236" gradientUnits="userSpaceOnUse">
<stop stop-color="#FFA264"/>
<stop offset="1" stop-color="#FF7A5A"/>
</linearGradient>
<linearGradient id="paint3_linear" x1="25.9643" y1="24.734" x2="25.9643" y2="36.8184" gradientUnits="userSpaceOnUse">
<stop stop-color="#FF9F5D"/>
<stop offset="1" stop-color="#FF825D"/>
</linearGradient>
<linearGradient id="paint4_linear" x1="7.60699" y1="11.8051" x2="7.60699" y2="19.1023" gradientUnits="userSpaceOnUse">
<stop stop-color="#FFAC77"/>
<stop offset="1" stop-color="#FF824A"/>
</linearGradient>
</defs>
</svg>
